<svg xmlns="http://www.w3.org/2000/svg" width="780" height="780" style="shape-rendering:geometricPrecision;text-rendering:geometricPrecision;image-rendering:optimizeQuality;fill-rule:evenodd;clip-rule:evenodd"><path style="opacity:.949" fill="#fefffe" d="M45.5 14.5q222-.25 444 .5 4.884 2.38 6.5 7.5.75 32.496.5 65 95.502-.25 191 .5 41.367 5.864 51.5 46.5 1 108.5 0 217-9.41 37.911-47.5 46.5-97.499.75-195 .5.25 179-.5 358-1.035 4.044-4.5 6.5a12585 12585 0 0 1-224 1.5 12585 12585 0 0 1-224-1.5l-3.5-3.5q-1-370 0-740a38 38 0 0 1 5.5-5m12 19h420v54q-38.051-.648-76 1.5-40.799 11.321-45.5 53.5a29914 29914 0 0 0 0 346q4.679 11.393 15.5 5.5l95-95a61 61 0 0 1 11-.5v177h-420zm348 73q142.501-.25 285 .5 25.357 7.413 30.5 33.5 1 103 0 206-6.312 29.814-36.5 33.5l-226 1-83.5 83.5q-1-162 0-324 4.581-26.716 30.5-34m-348 487h420v152h-420z"/><path style="opacity:.966" fill="#fefffe" d="M437.5 185.5h221v18h-221z"/><path style="opacity:.915" fill="#fefffe" d="M437.5 282.5h221v19h-221z"/><path style="opacity:.96" fill="#fefffe" d="M260.5 645.5q21.561-3.598 30.5 16 5.61 24.033-17.5 32.5-21.217 3.267-29.5-16.5-4.806-22.892 16.5-32"/></svg>